<svg width="14" height="12" viewBox="0 0 14 12" fill="none" xmlns="http://www.w3.org/2000/svg">
<path d="M5.86256 8.26222L3.29069 8.62367L5.28921 6.12262C5.89463 5.34941 6.21637 4.5901 6.23991 3.83374C6.26344 3.07739 6.01204 2.48952 5.50021 2.08106C4.98838 1.6726 4.35598 1.5148 3.60479 1.62037C2.03875 1.84046 0.930587 3.00892 0.594049 4.67915L2.22492 4.73559C2.34653 4.03037 2.82601 3.46961 3.44987 3.38193C4.09921 3.29067 4.48213 3.61338 4.45742 4.08426C4.43492 4.38604 4.27594 4.73297 3.9787 5.11232L0.411604 9.75538L0.38208 10.7463L5.80592 9.984L5.86256 8.26222Z" fill="white"/>
<path d="M10.1213 5.6902C11.3746 5.46212 11.2359 6.50732 11.2064 6.66726C11.1749 6.90539 11.0271 7.14688 10.7866 7.37544C10.5461 7.604 10.2767 7.71975 9.96933 7.74997C9.5056 7.77619 8.9317 7.48032 8.77437 7.09995L7.17743 8.11637C7.60805 9.05558 8.61044 9.6288 9.778 9.52963C10.6145 9.47698 11.3498 9.1659 12.0111 8.60556C12.6706 8.03248 13.0467 7.38239 13.1375 6.64255C13.2004 6.16631 13.0995 5.72606 12.8459 5.30728C12.5923 4.8885 12.2438 4.62587 11.8004 4.5194C12.4633 4.0627 12.9121 3.37641 12.9337 2.69824C12.9624 2.071 12.7599 1.55415 12.3008 1.15127C11.8417 0.748386 11.2602 0.58342 10.5546 0.643639C9.46341 0.732076 8.42551 1.3843 7.91438 2.2741L9.31104 2.97367C9.49728 2.63589 9.7941 2.43837 10.2143 2.37932C10.7745 2.30059 11.0553 2.72853 11.0145 3.08482C11.0199 3.12301 11.0397 4.0031 10.1612 4.12657L9.28269 4.25004L9.24277 5.81367L10.1213 5.6902Z" fill="white"/>
</svg>
